<svg preserveAspectRatio="none" width="100%" height="100%" overflow="visible" style="display: block;" viewBox="0 0 14 7.9091" fill="none" xmlns="http://www.w3.org/2000/svg">
<g id="double-check">
<path id="Path" d="M6.63361 7.07842L13.1336 0.157961C13.3215 -0.0420949 13.6379 -0.053679 13.8402 0.132087C14.0201 0.297213 14.0493 0.562687 13.9217 0.760149L13.8664 0.83068L7.3664 7.75113C7.1785 7.95119 6.86213 7.96277 6.65978 7.77701C6.47991 7.61188 6.45066 7.34641 6.57835 7.14895L6.63361 7.07842L13.1336 0.157961L6.63361 7.07842Z" fill="var(--fill-0, #3EAA3C)"/>
<path id="Path_2" d="M3.43573 6.69493L9.63521 0.156264C9.82405 -0.0429179 10.1405 -0.0530335 10.3419 0.13367C10.521 0.299628 10.549 0.565236 10.4204 0.762102L10.3648 0.832376L3.80333 7.75283C3.62866 7.93705 3.34667 7.95852 3.14702 7.81652L3.07639 7.7556L0.137853 4.70381C-0.0525441 4.50607 -0.0447525 4.19318 0.155256 4.00495C0.333042 3.83763 0.602859 3.82512 0.794346 3.96329L0.862149 4.02215L3.43573 6.69493L9.63521 0.156264L3.43573 6.69493Z" fill="var(--fill-0, #3EAA3C)"/>
</g>
</svg>
